<svg width="24" height="26" viewBox="0 0 24 26" fill="none" xmlns="http://www.w3.org/2000/svg">
<path d="M20.578 2.1781C20.3641 1.80323 20.0625 1.49296 19.7022 1.2772C19.3419 1.06144 18.9351 0.947473 18.521 0.946289H5.479C5.06493 0.947473 4.65814 1.06144 4.29784 1.2772C3.93755 1.49296 3.63591 1.80323 3.422 2.1781L0.172 7.90577C0.0593664 8.10292 -0.000113796 8.32889 1.63445e-07 8.55922C0.00469547 9.78405 0.431302 10.9651 1.2 11.8814V22.5163C1.2 23.1893 1.45286 23.8347 1.90294 24.3106C2.35303 24.7865 2.96348 25.0539 3.6 25.0539H20.4C21.0365 25.0539 21.647 24.7865 22.0971 24.3106C22.5471 23.8347 22.8 23.1893 22.8 22.5163V11.8814C23.5687 10.9651 23.9953 9.78405 24 8.55922C24.0001 8.32889 23.9406 8.10292 23.828 7.90577L20.578 2.1781ZM21.578 8.87748C21.4963 9.51294 21.19 10.0921 20.7208 10.4985C20.2516 10.9049 19.6543 11.1084 19.049 11.0681C18.4437 11.0278 17.8752 10.7466 17.458 10.2812C17.0408 9.81572 16.8057 9.2005 16.8 8.55922C16.7929 8.47656 16.7771 8.395 16.753 8.31603H16.777L15.864 3.48393H18.521L21.581 8.87642L21.578 8.87748ZM10.578 3.48499H13.411L14.387 8.64275C14.3651 9.29789 14.1035 9.91845 13.6574 10.3737C13.2113 10.829 12.6155 11.0834 11.9955 11.0834C11.3755 11.0834 10.7797 10.829 10.3336 10.3737C9.88752 9.91845 9.62595 9.29789 9.604 8.64275L10.578 3.48499ZM5.478 3.48499H8.136L7.224 8.31074H7.248C7.22263 8.39123 7.20651 8.47465 7.2 8.55922C7.19965 9.20448 6.96683 9.82536 6.54891 10.2956C6.13099 10.7658 5.55936 11.05 4.9503 11.0904C4.34124 11.1308 3.74049 10.9244 3.27026 10.5131C2.80003 10.1018 2.49564 9.51657 2.419 8.87642L5.478 3.48499ZM9.6 22.5163V18.7098H14.4V22.5163H9.6ZM16.8 22.5163V18.7098C16.8 18.3765 16.7379 18.0466 16.6173 17.7387C16.4967 17.4308 16.3199 17.151 16.0971 16.9154C15.8742 16.6798 15.6096 16.4928 15.3184 16.3653C15.0273 16.2378 14.7152 16.1721 14.4 16.1721H9.6C9.28483 16.1721 8.97274 16.2378 8.68156 16.3653C8.39038 16.4928 8.1258 16.6798 7.90294 16.9154C7.68008 17.151 7.5033 17.4308 7.38269 17.7387C7.26208 18.0466 7.2 18.3765 7.2 18.7098V22.5163H3.6V13.4548C3.99113 13.5684 4.39439 13.6288 4.8 13.6345C5.48135 13.6349 6.15494 13.4816 6.77575 13.1848C7.39657 12.8879 7.95032 12.4544 8.4 11.9131C8.84991 12.4541 9.4037 12.8874 10.0245 13.1843C10.6452 13.4811 11.3187 13.6347 12 13.6347C12.6813 13.6347 13.3548 13.4811 13.9755 13.1843C14.5963 12.8874 15.1501 12.4541 15.6 11.9131C16.1791 12.6255 16.938 13.1488 17.788 13.4218C18.6381 13.6948 19.544 13.7062 20.4 13.4548V22.5163H16.8Z" fill="black"/>
</svg>
