<svg width="16" height="16" viewBox="0 0 16 16" fill="none" xmlns="http://www.w3.org/2000/svg">
<path d="M14.384 0.395889L14.24 0.247435L14.003 1.31837e-05H2.33601C2.02896 -0.00103594 1.72474 0.060539 1.44086 0.181193C1.15698 0.301847 0.899062 0.479197 0.681942 0.703032C0.464821 0.926867 0.292792 1.19277 0.175757 1.48542C0.0587229 1.77808 -0.00100486 2.09171 1.27882e-05 2.40826V13.5917C-0.00100486 13.9083 0.0587229 14.2219 0.175757 14.5146C0.292792 14.8072 0.464821 15.0731 0.681942 15.297C0.899062 15.5208 1.15698 15.6982 1.44086 15.8188C1.72474 15.9395 2.02896 16.001 2.33601 16H13.664C14.2833 15.9992 14.877 15.7452 15.3149 15.2937C15.7529 14.8423 15.9992 14.2302 16 13.5917V2.06187L14.384 0.395889ZM4.80001 1.81444H6.24001V4.78351H5.07201C4.94401 4.78351 4.80001 4.58557 4.80001 4.45361V1.81444ZM9.76 1.81444H11.2V4.45361C11.2 4.58557 11.056 4.78351 10.928 4.78351H9.76V1.81444ZM11.2 14.3505H4.80001V10.1113C4.80001 9.66598 5.00801 9.73196 5.10401 9.73196H10.9114C10.9914 9.73196 11.2154 9.66598 11.2154 10.1113V14.3505H11.2ZM14.4 13.5917C14.3978 13.7923 14.3196 13.984 14.182 14.1258C14.0445 14.2676 13.8585 14.3483 13.664 14.3505H12.8V10.1113C12.8246 9.84704 12.7939 9.58038 12.7099 9.32939C12.6259 9.07841 12.4905 8.84896 12.313 8.65658C12.1355 8.4642 11.92 8.31339 11.681 8.21434C11.4421 8.11529 11.1853 8.07032 10.928 8.08247H5.07201C4.81473 8.07032 4.55793 8.11529 4.31897 8.21434C4.08002 8.31339 3.8645 8.4642 3.68699 8.65658C3.50949 8.84896 3.37415 9.07841 3.29013 9.32939C3.20611 9.58038 3.17538 9.84704 3.20001 10.1113V14.3505H2.33601C2.14148 14.3483 1.95553 14.2676 1.81797 14.1258C1.6804 13.984 1.60217 13.7923 1.60001 13.5917V2.40826C1.60217 2.20771 1.6804 2.01601 1.81797 1.87419C1.95553 1.73237 2.14148 1.65172 2.33601 1.64949H3.20001V4.45361C3.20705 4.96784 3.40509 5.45972 3.75334 5.82794C4.10159 6.19617 4.57354 6.41272 5.07201 6.43299H10.912C11.414 6.41895 11.8911 6.20489 12.2432 5.83578C12.5952 5.46667 12.7948 4.97125 12.8 4.45361V1.64949H13.328L14.4 2.75465V13.5917ZM5.76001 10.7216H10.24V11.7113H5.76001V10.7216ZM5.76001 12.5361H10.24V13.5258H5.76001V12.5361Z" fill="white"/>
</svg>
