<svg width="24" height="21" viewBox="0 0 24 21" fill="none" xmlns="http://www.w3.org/2000/svg">
<path d="M16.7633 14.1476L18.0969 12.835C18.1439 12.7893 18.2036 12.7582 18.2684 12.7457C18.3332 12.7332 18.4004 12.7399 18.4614 12.7648C18.5224 12.7897 18.5746 12.8318 18.6114 12.8858C18.6483 12.9398 18.668 13.0033 18.6683 13.0684V19.0317C18.668 19.5536 18.4572 20.0541 18.0822 20.4231C17.7073 20.7922 17.1988 20.9997 16.6685 21H1.99984C1.46975 20.9997 0.961445 20.7924 0.586505 20.4236C0.211564 20.0547 0.000627974 19.5546 0 19.0328L0 4.5965C-9.30914e-08 4.07436 0.210659 3.57359 0.585667 3.20427C0.960676 2.83495 1.46934 2.62732 1.99984 2.62701H13.3955C13.4616 2.62729 13.5261 2.64676 13.5809 2.68299C13.6358 2.71922 13.6786 2.77059 13.7039 2.83065C13.7292 2.89072 13.736 2.9568 13.7233 3.02062C13.7106 3.08444 13.679 3.14315 13.6326 3.18939L12.3013 4.50199C12.2702 4.53245 12.2331 4.55649 12.1924 4.57272C12.1517 4.58895 12.1081 4.59703 12.0642 4.5965H1.99984V19.0328H16.6673V14.3775C16.667 14.3348 16.6754 14.2925 16.6919 14.2531C16.7084 14.2136 16.7326 14.1778 16.7633 14.1476ZM23.2832 5.87177L12.3404 16.6421L8.57311 17.0528C8.31725 17.0801 8.05843 17.0506 7.8157 16.9665C7.57297 16.8823 7.3525 16.7456 7.17053 16.5665C6.98855 16.3874 6.84969 16.1704 6.76418 15.9315C6.67867 15.6926 6.64867 15.4379 6.6764 15.186L7.09368 11.4781L18.0389 0.704185C18.2648 0.480982 18.5334 0.303883 18.8291 0.183043C19.1247 0.0622035 19.4417 0 19.7619 0C20.082 0 20.3991 0.0622035 20.6947 0.183043C20.9904 0.303883 21.2589 0.480982 21.4849 0.704185L23.2856 2.4765C23.743 2.92699 24 3.53782 24 4.17472C24 4.81162 23.743 5.42245 23.2856 5.87294L23.2832 5.87177ZM19.1721 7.13888L16.7515 4.75401L9.00935 12.38L8.70469 15.0635L11.4312 14.7637L19.1721 7.13888ZM21.8726 3.87194L20.0719 2.09846C20.0315 2.05853 19.9834 2.02684 19.9305 2.00522C19.8776 1.9836 19.8209 1.97247 19.7637 1.97247C19.7064 1.97247 19.6497 1.9836 19.5968 2.00522C19.5439 2.02684 19.4959 2.05853 19.4555 2.09846L18.1681 3.36557L20.5887 5.7481L21.8761 4.48099C21.9567 4.3988 22.0015 4.28883 22.0008 4.17459C22.0002 4.06034 21.9541 3.95089 21.8726 3.86961V3.87194Z" fill="#3F0B6D"/>
</svg>
