<svg width="21" height="24" viewBox="0 0 21 24" fill="none" xmlns="http://www.w3.org/2000/svg">
<path d="M10.4578 23.9985C8.58934 24.0207 6.7255 23.798 4.90947 23.3358L2.81187 22.7694C2.47399 22.6764 2.1831 22.4506 1.99947 22.1386C1.81584 21.8266 1.75354 21.4524 1.82549 21.0936C1.82549 21.0749 1.84399 21.0547 1.84399 21.0353L4.9819 10.0985L4.53649 8.09094L3.57092 8.92925C3.46749 9.01615 3.34826 9.07999 3.22054 9.11686C3.09281 9.15373 2.95926 9.16286 2.82805 9.14368C2.6981 9.12207 2.57427 9.07072 2.46533 8.99325C2.3564 8.91578 2.26503 8.81409 2.1977 8.6954L0.136318 5.06868C0.028407 4.88381 -0.0174726 4.66634 0.00598994 4.45092C0.0294525 4.23549 0.120907 4.03451 0.26578 3.88L3.70038 0.293746C3.84374 0.150339 4.02458 0.0551099 4.21977 0.0202451C4.27411 0.00409835 4.33062 -0.00246426 4.38699 0.000824916H16.4208C16.4769 -0.00246454 16.5332 0.0040989 16.5873 0.0202451C16.7828 0.0541072 16.9641 0.149147 17.1074 0.292937L20.542 3.88C20.6872 4.03447 20.7789 4.23556 20.8025 4.45116C20.8261 4.66676 20.7803 4.88446 20.6723 5.06949L18.6109 8.65575C18.5436 8.77444 18.4522 8.87613 18.3432 8.9536C18.2343 9.03107 18.1105 9.08243 17.9805 9.10403C17.8494 9.1279 17.7148 9.12113 17.5864 9.08421C17.458 9.04729 17.3389 8.98112 17.2377 8.89041L16.2667 8.0521L15.8213 10.0597L18.9399 21.0345C18.9399 21.0539 18.9584 21.0741 18.9584 21.0927C19.0359 21.4465 18.9807 21.8179 18.8044 22.13C18.6281 22.4422 18.3441 22.6711 18.0114 22.7694L16.5819 23.199C14.5838 23.7519 12.5241 24.0207 10.4578 23.9985ZM3.79286 21.0183L5.37106 21.448C8.9004 22.2964 12.5708 22.2562 16.0825 21.3306L17.0111 21.058L13.9672 10.3906C13.9144 10.2272 13.908 10.0512 13.9487 9.88407L14.8025 6.10199C14.8396 5.94003 14.9153 5.79064 15.0226 5.66792C15.1298 5.5452 15.2651 5.45318 15.4156 5.40056C15.5661 5.34793 15.7269 5.33643 15.8828 5.36713C16.0387 5.39783 16.1846 5.46972 16.3068 5.57603L17.5875 6.68703L18.7203 4.71831L16.0656 1.95093H4.75843L2.10445 4.71831L3.23571 6.68784L4.51646 5.57603C4.63955 5.47143 4.78552 5.40067 4.94119 5.37016C5.09685 5.33964 5.25731 5.35033 5.40805 5.40125C5.5578 5.45599 5.69239 5.54864 5.79992 5.67101C5.90744 5.79337 5.98459 5.94168 6.02454 6.1028L6.87837 9.90592C6.91876 10.0734 6.91234 10.2495 6.85988 10.4133L3.79286 21.0183Z" fill="#3F0B6D"/>
</svg>
