<svg width="24" height="26" viewBox="0 0 24 26" fill="none" xmlns="http://www.w3.org/2000/svg">
<path d="M22.7612 12.5166L18.1135 8.17584C17.9004 7.98354 17.6278 7.87947 17.3468 7.88315H12.9316V7.51662C13.464 7.30196 13.936 6.94941 14.3038 6.49176C14.5951 6.13075 14.8116 5.71003 14.9397 5.25637C15.0677 4.8027 15.1044 4.32603 15.0474 3.85666C14.9679 3.15388 14.6858 2.4934 14.2387 1.96376C13.7917 1.43412 13.2011 1.06064 12.5463 0.893373C11.8914 0.72611 11.2034 0.773063 10.5747 1.02794C9.94589 1.28281 9.40635 1.73343 9.02837 2.31938C8.86091 2.5864 8.79879 2.91129 8.85512 3.2255C8.91144 3.5397 9.08181 3.81864 9.33027 4.00346C9.58457 4.1793 9.89397 4.24452 10.1932 4.18538C10.4924 4.12624 10.7581 3.94735 10.9341 3.68646C11.0384 3.52125 11.1865 3.39165 11.36 3.31357C11.5336 3.2355 11.7251 3.21235 11.911 3.24697C12.1219 3.28793 12.3155 3.39651 12.4653 3.55779C12.615 3.71906 12.7135 3.9251 12.7472 4.14755C12.7626 4.28753 12.7499 4.42936 12.7099 4.56386C12.6698 4.69836 12.6034 4.82253 12.5147 4.92835C12.4273 5.03463 12.3206 5.12166 12.2009 5.18441C12.0813 5.24717 11.9509 5.28441 11.8175 5.29399C11.484 5.31248 11.17 5.46491 10.9406 5.71972C10.7112 5.97453 10.5839 6.31221 10.585 6.66287V7.88315H5.96053C5.70946 7.88555 5.46548 7.97094 5.26325 8.12721L0.452655 11.9817C0.324665 12.082 0.218904 12.2103 0.142654 12.3577C0.0664041 12.5051 0.0214758 12.6681 0.010962 12.8354C-0.0112053 12.9962 0.000336171 13.16 0.0447793 13.3156C0.0892224 13.4712 0.165494 13.6146 0.268259 13.736L3.03335 17.1276C3.22175 17.3599 3.48668 17.5091 3.77523 17.5453C4.06379 17.5816 4.35474 17.5022 4.58999 17.323L4.68262 17.2501V23.9846C4.68113 24.1453 4.71017 24.3047 4.76805 24.4534C4.82592 24.6022 4.91147 24.7373 5.01968 24.851C5.12789 24.9646 5.2566 25.0544 5.39826 25.1152C5.53993 25.176 5.69172 25.2065 5.84475 25.2049H17.3468C17.4998 25.2065 17.6516 25.176 17.7933 25.1152C17.9349 25.0544 18.0636 24.9646 18.1719 24.851C18.2801 24.7373 18.3656 24.6022 18.4235 24.4534C18.4814 24.3047 18.5104 24.1453 18.5089 23.9846V17.3203L18.5552 17.3446C18.7781 17.5132 19.0516 17.5911 19.325 17.5642C19.5985 17.5372 19.8533 17.407 20.0424 17.1978L22.8075 14.2944C22.9197 14.1762 23.0084 14.0357 23.0682 13.881C23.128 13.7263 23.1577 13.5607 23.1557 13.3938C23.1515 13.2269 23.1142 13.0627 23.0463 12.9117C22.9784 12.7606 22.8813 12.6261 22.7612 12.5166ZM19.0895 14.7681L18.0209 13.9873C17.8464 13.8585 17.6421 13.7815 17.4294 13.7643C17.2167 13.7472 17.0036 13.7906 16.8125 13.89C16.6276 13.9958 16.4724 14.1506 16.3623 14.3389C16.2521 14.5272 16.1909 14.7426 16.1847 14.9635V22.7715H7.00601V14.9104C7.01055 14.687 6.95376 14.4671 6.84243 14.2767C6.73111 14.0863 6.56995 13.9337 6.37821 13.8369C6.1886 13.7316 5.97446 13.6849 5.7606 13.7021C5.54673 13.7193 5.34189 13.7997 5.16977 13.9341L4.10113 14.7149L2.81979 13.1533L6.35162 10.3228H16.9008L20.2937 13.4947L19.0895 14.7681Z" fill="#111111"/>
</svg>
