<svg width="16" height="16" viewBox="0 0 16 16" fill="none" xmlns="http://www.w3.org/2000/svg">
<path d="M15.7642 14.6258L12.1943 11.0557C13.272 9.68739 13.7862 7.95905 13.6318 6.22416C13.4774 4.48926 12.666 2.87892 11.3636 1.72251C10.0612 0.5661 8.36618 -0.0489913 6.62529 0.0030525C4.88439 0.0550963 3.22915 0.770342 1.99815 2.00249C0.767139 3.23464 0.053385 4.89057 0.00287531 6.63159C-0.0476344 8.37261 0.568917 10.0671 1.72642 11.3686C2.88393 12.67 4.49491 13.4801 6.22986 13.6329C7.96481 13.7858 9.69262 13.2701 11.0599 12.1911L14.6258 15.7642C14.7768 15.9152 14.9815 16 15.195 16C15.4085 16 15.6133 15.9152 15.7642 15.7642C15.9152 15.6133 16 15.4085 16 15.195C16 14.9815 15.9152 14.7767 15.7642 14.6258ZM1.62722 6.83644C1.62741 5.80527 1.93335 4.79732 2.50636 3.94004C3.07936 3.08276 3.89368 2.41464 4.84637 2.02016C5.79905 1.62569 6.84731 1.52258 7.85858 1.72387C8.86986 1.92517 9.79875 2.42182 10.5278 3.15103C11.2568 3.88024 11.7533 4.80926 11.9544 5.82063C12.1555 6.83199 12.0521 7.88027 11.6575 8.83292C11.2629 9.78558 10.5946 10.5998 9.73728 11.1727C8.87992 11.7455 7.87196 12.0513 6.84084 12.0513C5.45807 12.0508 4.13201 11.5016 3.15377 10.5242C2.17554 9.54686 1.62507 8.22127 1.62322 6.83843L1.62722 6.83644Z" fill="#525252"/>
</svg>
