<svg width="20" height="16" viewBox="0 0 20 16" fill="none" xmlns="http://www.w3.org/2000/svg">
<path d="M7.98154 6.24256L3.99692 10.3959V11.4458L15.9831 11.4353L15.9731 8.28572L12.0377 4.11298L8.99135 7.29079L7.98154 6.24256ZM18.0004 2.0997V13.5673H1.99962V2.0997H18.0004ZM18.0004 0H1.99962C1.46966 0.00127976 0.961757 0.222908 0.58702 0.6164C0.212283 1.00989 0.00121876 1.54322 0 2.0997V13.5673C0.00101634 14.1238 0.212016 14.6573 0.586796 15.0508C0.961577 15.4443 1.4696 15.6659 1.99962 15.667H18.0004C18.5307 15.667 19.0393 15.4457 19.4143 15.052C19.7893 14.6582 20 14.1241 20 13.5673V2.0997C20 1.54282 19.7893 1.00876 19.4143 0.614987C19.0393 0.221217 18.5307 0 18.0004 0Z" fill="#C8C8C8"/>
</svg>
