<svg width="24" height="24" viewBox="0 0 24 24" fill="none" xmlns="http://www.w3.org/2000/svg">
<path d="M23.7438 11.6926L19.5798 7.52864C19.4137 7.36252 19.1928 7.27102 18.9578 7.27102H16.256C16.1829 7.27102 16.1122 7.28095 16.0442 7.29788C15.5697 6.9217 15.0009 6.69825 14.4023 6.64814L15.0673 3.29339L15.645 2.6595C15.7365 2.55909 15.78 2.42395 15.7641 2.28905C15.7483 2.15414 15.6747 2.03273 15.5624 1.95628L12.8089 0.0812813L12.8084 0.0820781C12.7319 0.03 12.6409 0 12.5452 0H6.916C6.82029 0 6.72925 0.03 6.65271 0.0820781L6.65215 0.0812813L3.89861 1.95628C3.78635 2.03273 3.71276 2.15414 3.69691 2.28905C3.68107 2.42395 3.72452 2.55914 3.81602 2.6595L4.4089 3.30998L5.90397 10.9101L0.34038 18.846C0.021396 19.301 -0.0784009 19.8696 0.0664897 20.406C0.211427 20.9423 0.58399 21.3833 1.08869 21.6158L3.74557 22.8394C3.78541 23.0252 3.86083 23.2041 3.97179 23.3649C4.24591 23.7626 4.69793 24 5.18097 24H8.73058C9.11664 24 9.46816 23.85 9.73057 23.6056C9.99297 23.85 10.3445 24 10.7306 24H14.2802C14.7632 24 15.2152 23.7626 15.4894 23.365C15.6003 23.2041 15.6757 23.0251 15.7156 22.8394L18.3725 21.6158C18.8771 21.3833 19.2497 20.9424 19.3946 20.406C19.5396 19.8695 19.4397 19.301 19.1208 18.846L13.5574 10.9104L14.2184 7.57598C14.6431 7.59098 15.0501 7.73128 15.3932 7.98117C15.3824 8.03602 15.3765 8.09264 15.3765 8.15063V10.8535C15.3765 11.0884 15.4679 11.3093 15.6341 11.4754L19.797 15.6393C19.9631 15.8055 20.184 15.897 20.419 15.8971C20.6539 15.8971 20.8749 15.8056 21.041 15.6395L23.7439 12.9366C24.0867 12.5936 24.0867 12.0356 23.7438 11.6926ZM12.6986 1.14038L14.5884 2.42719L10.1993 7.24284V5.46933L12.6986 1.14038ZM11.7333 0.9375L9.73057 4.40625L7.72788 0.9375H11.7333ZM6.76249 1.14038L9.26182 5.46933V7.24284L4.87277 2.42719L6.76249 1.14038ZM9.38416 8.76881C9.47665 8.8703 9.60344 8.92181 9.73075 8.92181C9.84344 8.92181 9.9565 8.88141 10.0464 8.79952C10.0567 8.79014 13.846 4.6335 13.846 4.6335L12.6738 10.5469H6.78799L5.62736 4.64686L9.38416 8.76881ZM18.4896 20.1615C18.4173 20.4287 18.2317 20.6484 17.9803 20.7642L15.597 21.8618L12.9528 14.9115C12.8607 14.6695 12.5899 14.5479 12.348 14.64C12.1061 14.7321 11.9846 15.0028 12.0766 15.2448L14.7768 22.3423C14.8398 22.508 14.8182 22.6868 14.7176 22.8328C14.617 22.9787 14.4575 23.0625 14.2803 23.0625H10.7306C10.4377 23.0625 10.1994 22.8241 10.1994 22.5312V15.4688C10.1994 15.21 9.9895 15 9.73061 15C9.47172 15 9.26186 15.21 9.26186 15.4688V22.5313C9.26186 22.8242 9.02355 23.0625 8.73063 23.0625H5.18102C5.00369 23.0625 4.84427 22.9788 4.74363 22.8328C4.64299 22.6868 4.62143 22.5081 4.68447 22.3424L7.38466 15.2448C7.47668 15.0029 7.35518 14.7321 7.11321 14.64C6.87124 14.5481 6.60049 14.6696 6.50843 14.9115L3.86421 21.8619L1.4809 20.7643C1.22941 20.6484 1.04379 20.4287 0.971599 20.1615C0.899365 19.8942 0.949146 19.6109 1.10805 19.3842L6.64629 11.4844H12.8148L18.3531 19.3842C18.5121 19.6109 18.5618 19.8942 18.4896 20.1615ZM20.419 14.9355L16.3139 10.8295V8.86416L16.9493 9.4995C17.0408 9.591 17.1608 9.6368 17.2807 9.6368C17.4007 9.6368 17.5207 9.591 17.6122 9.4995C17.7952 9.31645 17.7953 9.01964 17.6122 8.83655L16.9841 8.20852H18.9338L23.0399 12.3146L20.419 14.9355Z" fill="#3F0B6D"/>
</svg>
