<svg width="22" height="22" viewBox="0 0 22 22" fill="none" xmlns="http://www.w3.org/2000/svg">
<path d="M20.094 2.77673L19.2241 1.90681C18.7189 1.40161 17.8998 1.40161 17.3946 1.90681L1.22546 18.0758C0.720257 18.581 0.720257 19.4001 1.22546 19.9053L2.09539 20.7752C2.60059 21.2804 3.41968 21.2804 3.92489 20.7752L20.094 4.60622C20.5992 4.10102 20.5992 3.28193 20.094 2.77673Z" fill="#C8C8C8"/>
<path d="M19.2231 20.775L20.0931 19.905C20.5983 19.3998 20.5983 18.5808 20.0931 18.0756L3.92395 1.90655C3.41874 1.40135 2.59965 1.40135 2.09445 1.90655L1.22452 2.77647C0.719316 3.28167 0.719316 4.10076 1.22452 4.60596L17.3936 20.775C17.8988 21.2802 18.7179 21.2802 19.2231 20.775Z" fill="#C8C8C8"/>
</svg>
